<svg width="64" height="64" viewBox="0 0 64 64" fill="none" xmlns="http://www.w3.org/2000/svg">
<g clip-path="url(#clip0_661_14)">
<path fill-rule="evenodd" clip-rule="evenodd" d="M22.64 3.05865H41.36C47.8133 3.05865 53.0667 8.16529 53.0667 14.296C53.0667 17.88 51.2694 21.1173 48.4854 23.184C51.2694 25.2533 53.0667 28.488 53.0667 32.0747C53.0667 38.2027 47.8133 43.3093 41.36 43.3093C38.7307 43.3093 36.3013 42.464 34.3467 41.0453V49.8506C34.3467 55.9813 29.096 61.088 22.64 61.088C16.1867 61.088 10.9333 55.9813 10.9333 49.8506C10.9333 46.2666 12.7306 43.032 15.5146 40.9626C12.7306 38.8933 10.9333 35.6587 10.9333 32.0747C10.9333 28.488 12.7306 25.2533 15.5146 23.184C12.7306 21.1173 10.9333 17.88 10.9333 14.296C10.9333 8.16529 16.1867 3.05865 22.64 3.05865ZM29.6533 43.3093H22.64C18.8267 43.3093 15.6267 46.2293 15.6267 49.8506C15.6267 53.4746 18.8267 56.392 22.64 56.392C26.456 56.392 29.6533 53.4746 29.6533 49.8506V43.3093ZM34.3467 32.0747C34.3467 28.4507 37.544 25.5307 41.36 25.5307C45.1733 25.5307 48.3733 28.4507 48.3733 32.0747C48.3733 35.696 45.1733 38.6159 41.36 38.6159C37.544 38.6159 34.3467 35.696 34.3467 32.0747ZM22.552 25.5333C18.776 25.576 15.6267 28.48 15.6267 32.0747C15.6267 35.696 18.8267 38.6159 22.64 38.6159H29.6533V25.5307H22.64L22.552 25.5333ZM29.6533 20.8373V7.75462H22.64C18.8267 7.75462 15.6267 10.672 15.6267 14.296C15.6267 17.92 18.8267 20.8373 22.64 20.8373H29.6533ZM34.3467 20.8373H41.36C45.1733 20.8373 48.3733 17.92 48.3733 14.296C48.3733 10.672 45.1733 7.75462 41.36 7.75462H34.3467V20.8373Z" fill="#E4E4E4"/>
</g>
<defs>
<clipPath id="clip0_661_14">
<rect width="64" height="64" fill="white"/>
</clipPath>
</defs>
</svg>
