<svg width="65" height="24" viewBox="0 0 65 24" fill="none" xmlns="http://www.w3.org/2000/svg">
<path d="M55.2721 24C54.6936 24 54.2145 23.8282 53.8349 23.4847C53.4733 23.1593 53.2925 22.7345 53.2925 22.2102C53.2925 21.704 53.4281 21.2791 53.6993 20.9356C53.9885 20.6102 54.3953 20.4475 54.9196 20.4475H55.3535C55.697 20.4475 55.9411 20.348 56.0857 20.1492C56.2484 19.9684 56.3298 19.6791 56.3298 19.2814V15.322C56.3298 14.7435 56.4654 14.2011 56.7365 13.6949C57.0077 13.1706 57.3512 12.7548 57.7671 12.4475C58.1829 12.122 58.6349 11.9593 59.123 11.9593V12.0678C58.6349 12.0678 58.1829 11.9141 57.7671 11.6068C57.3512 11.2814 57.0077 10.8655 56.7365 10.3593C56.4654 9.83503 56.3298 9.28362 56.3298 8.70508V4.71865C56.3298 4.3209 56.2484 4.03164 56.0857 3.85085C55.9411 3.65198 55.697 3.55254 55.3535 3.55254H54.9196C54.3953 3.55254 53.9885 3.38983 53.6993 3.06441C53.4281 2.72091 53.2925 2.29605 53.2925 1.78983C53.2925 1.26554 53.4733 0.840679 53.8349 0.515255C54.2145 0.171752 54.6936 0 55.2721 0H57.2247C58.0563 0 58.7614 0.153673 59.3399 0.461018C59.9366 0.768363 60.3885 1.22034 60.6959 1.81695C61.0032 2.39548 61.1569 3.10057 61.1569 3.9322V8.10848C61.1569 8.81356 61.2744 9.32881 61.5094 9.65424C61.7445 9.96158 62.1512 10.1333 62.7298 10.1695C63.2179 10.2057 63.5885 10.3955 63.8416 10.739C64.0947 11.0825 64.2213 11.5073 64.2213 12.0136C64.2213 12.5017 64.0947 12.9266 63.8416 13.2881C63.5885 13.6316 63.2179 13.8215 62.7298 13.8576C62.1512 13.8757 61.7445 14.0475 61.5094 14.3729C61.2744 14.6983 61.1569 15.2136 61.1569 15.9186V20.0678C61.1569 21.2972 60.8043 22.2554 60.0993 22.9424C59.4123 23.6475 58.4541 24 57.2247 24H55.2721Z" fill="white"/>
<path d="M42.6621 21.6523C40.7276 21.6523 39.0282 21.2455 37.5638 20.432C36.0994 19.6003 34.9604 18.4433 34.1468 16.9608C33.3514 15.4783 32.9536 13.7517 32.9536 11.7811C32.9536 10.2986 33.1796 8.95173 33.6316 7.74043C34.1016 6.52913 34.7615 5.48958 35.6112 4.62179C36.479 3.75399 37.5095 3.0941 38.7028 2.64213C39.896 2.17207 41.2158 1.93704 42.6621 1.93704C44.5965 1.93704 46.2869 2.34382 47.7333 3.15738C49.1977 3.97094 50.3367 5.11896 51.1502 6.60145C51.9638 8.06586 52.3706 9.79241 52.3706 11.7811C52.3706 13.2636 52.1355 14.6105 51.6655 15.8218C51.2135 17.0331 50.5536 18.0817 49.6858 18.9676C48.8361 19.8353 47.8146 20.5043 46.6214 20.9743C45.4282 21.4263 44.1084 21.6523 42.6621 21.6523ZM42.6621 17.476C43.6203 17.476 44.4338 17.25 45.1028 16.7981C45.7717 16.3461 46.2869 15.6952 46.6485 14.8455C47.0101 13.9958 47.1909 12.9743 47.1909 11.7811C47.1909 9.99128 46.7932 8.59919 45.9977 7.60484C45.2022 6.61049 44.0903 6.11331 42.6621 6.11331C41.722 6.11331 40.9084 6.3393 40.2214 6.79128C39.5525 7.22518 39.0372 7.86699 38.6756 8.7167C38.3141 9.54834 38.1333 10.5698 38.1333 11.7811C38.1333 13.5709 38.531 14.9721 39.3265 15.9845C40.122 16.9788 41.2338 17.476 42.6621 17.476Z" fill="white"/>
<path d="M29.8 14.9463C28.9864 14.9463 28.3356 14.7022 27.8474 14.2141C27.3774 13.7259 27.1423 13.0841 27.1423 12.2886C27.1423 11.5112 27.3774 10.8875 27.8474 10.4174C28.3356 9.92931 28.9864 9.68524 29.8 9.68524C30.6497 9.68524 31.3005 9.92931 31.7525 10.4174C32.2226 10.8875 32.4576 11.5112 32.4576 12.2886C32.4576 13.0841 32.2226 13.7259 31.7525 14.2141C31.3005 14.7022 30.6497 14.9463 29.8 14.9463Z" fill="white"/>
<path d="M15.2179 22.0242C14.3682 22.0242 13.7173 21.8073 13.2653 21.3734C12.8315 20.9214 12.6145 20.2796 12.6145 19.448V5.48185C12.6145 4.65021 12.8315 4.01744 13.2653 3.58355C13.7173 3.13157 14.3682 2.90558 15.2179 2.90558H24.4111C25.062 2.90558 25.5501 3.06829 25.8755 3.39371C26.2009 3.71914 26.3637 4.18919 26.3637 4.80388C26.3637 5.43665 26.2009 5.92479 25.8755 6.26829C25.5501 6.59371 25.062 6.75643 24.4111 6.75643H17.3874V10.3903H23.8145C24.4473 10.3903 24.9264 10.553 25.2518 10.8785C25.5953 11.2039 25.767 11.683 25.767 12.3157C25.767 12.9485 25.5953 13.4276 25.2518 13.753C24.9264 14.0785 24.4473 14.2412 23.8145 14.2412H17.3874V18.1734H24.4111C25.062 18.1734 25.5501 18.3451 25.8755 18.6886C26.2009 19.0141 26.3637 19.4841 26.3637 20.0988C26.3637 20.7316 26.2009 21.2107 25.8755 21.5361C25.5501 21.8615 25.062 22.0242 24.4111 22.0242H15.2179Z" fill="white"/>
<path d="M7.72559 24C6.91203 24 6.20695 23.8463 5.61034 23.539C5.03181 23.2316 4.57983 22.7797 4.25441 22.1831C3.94706 21.5864 3.79339 20.8814 3.79339 20.0678V15.9186C3.79339 15.2136 3.67588 14.6983 3.44085 14.3729C3.2239 14.0475 2.82616 13.8757 2.24763 13.8576C1.75949 13.8215 1.38887 13.6316 1.13576 13.2881C0.882657 12.9266 0.756104 12.5017 0.756104 12.0136C0.756104 11.5073 0.882657 11.0825 1.13576 10.739C1.38887 10.3955 1.75949 10.2057 2.24763 10.1695C2.82616 10.1333 3.2239 9.96158 3.44085 9.65424C3.67588 9.32881 3.79339 8.81356 3.79339 8.10848V3.9322C3.79339 2.68475 4.13689 1.71751 4.8239 1.03051C5.52898 0.343503 6.49622 0 7.72559 0H9.70525C10.2838 0 10.7538 0.171752 11.1154 0.515255C11.4951 0.840679 11.6849 1.26554 11.6849 1.78983C11.6849 2.29605 11.5403 2.72091 11.251 3.06441C10.9618 3.38983 10.564 3.55254 10.0578 3.55254H9.59678C9.27136 3.55254 9.02729 3.65198 8.86458 3.85085C8.70187 4.03164 8.62051 4.3209 8.62051 4.71865V8.70508C8.62051 9.28362 8.49396 9.83503 8.24085 10.3593C7.98774 10.8655 7.64424 11.2814 7.21034 11.6068C6.79452 11.9322 6.34254 12.0949 5.85441 12.0949V11.9864C6.34254 11.9864 6.79452 12.1401 7.21034 12.4475C7.64424 12.7548 7.98774 13.1706 8.24085 13.6949C8.49396 14.2011 8.62051 14.7435 8.62051 15.322V19.2814C8.62051 19.6791 8.70187 19.9684 8.86458 20.1492C9.02729 20.348 9.2804 20.4475 9.6239 20.4475H10.0578C10.564 20.4475 10.9618 20.6102 11.251 20.9356C11.5403 21.2791 11.6849 21.704 11.6849 22.2102C11.6849 22.7345 11.4951 23.1593 11.1154 23.4847C10.7538 23.8282 10.2838 24 9.70525 24H7.72559Z" fill="white"/>
</svg>
